<?xml version="1.0" encoding="utf-8" ?>
<svg xmlns="http://www.w3.org/2000/svg" xmlns:xlink="http://www.w3.org/1999/xlink" width="512" height="512">
	<path transform="scale(0.5 0.5)" d="M244.569 37.7862C262.41 36.9389 280.504 38.0291 298.096 41.1489C330.212 46.8441 358.62 59.6102 385.264 78.2911C400.196 88.7596 413.466 100.086 425.124 114.18C428.026 117.688 431.202 121.019 433.789 124.772C437.343 129.926 441.162 134.944 444.485 140.25C458.623 162.822 468.332 187.487 473.644 213.554C475.822 224.243 477.499 234.626 477.52 245.545L545.235 246.29C546.953 190.743 573.559 138.478 612.75 99.9979C654.507 58.9982 710.055 37.0088 768.441 37.6092C788.7 37.8176 809.335 39.8869 828.938 45.1853C865.639 55.1045 899.708 76.2159 926.079 103.449C945.521 123.526 960.353 148.291 971.035 174C975.457 184.644 979.496 195.395 981.922 206.694C985.89 225.182 986.739 244.379 986.49 263.232C986.27 279.811 983.363 296.77 979.057 312.751C977.829 317.31 976.847 321.956 975.359 326.443C967.311 350.71 955.046 372.314 939.394 392.457C933.714 399.767 927.889 407.028 921.22 413.473C912.352 422.044 902.734 430.554 892.631 437.658C856.455 463.097 811.536 476.5 767.454 475.696L767.167 549.227C816.703 548.181 865.898 565.119 905 595.451C937.057 620.318 960.863 656.042 974.747 693.862C978.145 703.119 981.443 712.916 982.671 722.748L985.526 744.916C986.719 760.08 987.012 775.347 985.501 790.5C984.298 802.572 981.733 814.329 978.508 826C975.087 838.381 971.381 850.49 966.042 862.203C961.201 872.824 954.791 882.778 948.182 892.364C943.181 899.618 938.12 906.806 932.352 913.479C923.149 924.125 912.463 933.332 901.305 941.853C892.46 948.608 883.497 955.092 873.712 960.444C845.436 975.909 813.366 983.697 781.375 985.947C772.547 986.118 763.416 986.395 754.611 985.838C734.027 984.536 712.669 980.968 693.138 974.238C668.776 965.844 644.608 951.752 624.75 935.359C577.255 896.151 551.055 841.858 544.903 781.005L477.568 780.813C477.568 790.375 476.256 799.531 474.495 808.909C466.782 849.977 444.866 887.594 416.563 917.926C407.951 927.157 398.567 934.962 388.584 942.644C379.851 949.365 370.843 955.783 361.091 960.958C341.545 971.33 319.519 978.367 297.808 982.392C288.416 984.134 278.815 985.696 269.25 985.998C258.016 986.352 246.526 986.476 235.332 985.392C193.643 981.354 155.359 966.661 121.834 941.521C115.269 936.598 108.692 931.546 102.737 925.89C86.9067 910.853 72.3858 892.183 62.2142 872.856C45.8912 841.84 37.6169 804.594 36.8115 769.649C35.7778 724.802 48.9545 681.295 74.0149 644.194C79.2284 636.476 85.1173 628.271 91.5873 621.577C119.278 592.928 153.064 568.951 191.694 557.654C212.914 551.449 234.641 549.068 256.673 548.556L256.705 476.235L256.065 476.276C246.951 476.786 236.852 475.413 227.825 474.252C217.135 472.876 206.631 471.186 196.226 468.308C164.8 459.615 133.813 442.182 109.498 420.582C64.964 381.02 40.1718 324.862 36.933 265.735C36.4436 256.801 36.8562 247.913 37.3778 238.991C38.0358 227.733 39.0439 216.531 41.5142 205.5C49.4006 170.285 67.2016 137.89 91.2676 111.189C118.403 81.0815 154.584 56.9149 193.745 45.75C210.17 41.0672 227.54 38.6604 244.569 37.7862Z"/>
	<path fill="#176B8F" transform="scale(0.5 0.5)" d="M177.432 580.188C182.87 576.539 191.35 574.2 197.577 572.25C201.826 570.92 206.176 569.935 210.516 568.958C211.434 568.751 213.374 568.079 214.25 568.211C214.774 568.29 215.842 569.048 216.359 569.32C209.519 571.275 202.534 572.985 195.778 575.194C190.738 576.841 185.106 579.467 180 580.516L179.509 580.625C178.758 580.718 178.126 580.425 177.432 580.188Z"/>
	<path fill="#000086" transform="scale(0.5 0.5)" d="M607.445 127.183C605.396 131.92 601.948 135.668 599.021 139.873C596.121 144.038 593.454 148.534 590.899 152.925C582.703 167.008 576.241 182.611 569.881 197.599C569.322 198.917 568.398 199.418 567.22 200.104C569.168 187.367 576.279 174.882 582.33 163.625C588.991 151.232 596.295 136.186 607.445 127.183Z"/>
	<path fill="#000086" transform="scale(0.5 0.5)" d="M59.8131 192.087C60.0869 188.163 61.2735 184.477 62.6849 180.836C67.2744 168.994 74.3947 158.945 81.25 148.398C85.5401 141.798 89.6035 134.743 94.3714 128.455C113.64 103.046 140.147 84.4314 169.076 71.6306C167.996 73.0199 167.345 73.7846 165.668 74.3797C165.043 74.6017 164.599 74.9275 164.081 75.3318C158.391 78.5611 153.207 82.2198 147.749 85.7892C124.882 100.744 103.452 119.184 87.4256 141.5C85.3533 144.386 82.5519 147.432 80.8852 150.5C76.1339 159.246 71.5529 168.199 67.1824 177.158C64.8162 182.008 62.8204 187.65 59.8131 192.087Z"/>
	<defs>
		<linearGradient id="gradient_0" gradientUnits="userSpaceOnUse" x1="899.25" y1="98.75" x2="816.26001" y2="189.74001">
			<stop offset="0" stop-color="#010151"/>
			<stop offset="1" stop-color="#0001A4"/>
		</linearGradient>
	</defs>
	<path fill="url(#gradient_0)" transform="scale(0.5 0.5)" d="M651.03 87.8376C659.814 80.0984 670.868 75.0184 681.488 70.326C691.599 65.8588 701.687 61.3676 712.316 58.2184C718.31 56.4424 724.369 55.5485 730.5 54.428C736.178 53.3904 741.744 52.2138 747.5 51.599C755.181 50.7785 762.945 50.9017 770.659 50.9059C776.998 50.9094 783.457 50.7363 789.782 51.1266C799.482 51.7252 809.593 54.2485 818.993 56.6923C842.031 62.682 864.738 72.0196 884.391 85.6291C891.957 90.8693 898.609 96.9931 905.345 103.218C912.374 109.712 919.314 116.148 925.61 123.383L931.382 131.022L925.781 128.233C920.159 120.787 913.005 114.177 906.142 107.895C899.019 101.376 891.838 95.0597 883.863 89.584C860.862 73.7922 834.519 64.586 807.539 58.3808C794.725 55.4336 781.476 55.5927 768.424 56.0511C758.518 56.399 748.413 56.3712 738.574 57.6646C724.752 59.4814 710.7 63.5133 697.462 67.8335C692.915 69.3173 688.24 70.4572 683.75 72.1158C674.085 75.6858 663.603 81.0082 655 86.6599C653.959 87.344 653.333 87.8188 652.026 87.8431L651.03 87.8376Z"/>
	<path fill="#A3C6F7" transform="scale(0.5 0.5)" d="M694.432 266.057C701.061 265.969 707.695 265.874 714.326 265.918C718.828 265.948 723.663 265.771 727.997 267.168C731.816 268.4 735.434 270.919 738.304 273.686C743.285 278.488 746.475 284.745 746.562 291.706C747.398 359.273 746.839 426.929 746.588 494.5C746.451 531.369 746.819 568.225 746.596 605.094C746.406 636.591 746.476 668.08 746.169 699.578C746.091 707.508 746.016 715.437 746.007 723.368C746.002 728.134 746.33 733.253 745.776 737.972C745.174 743.093 742.36 748.318 738.777 752.008C729.117 761.957 716.432 761.39 703.522 761.464C612.499 761.984 521.467 761.556 430.442 761.622C401.588 761.642 372.735 761.759 343.881 761.669C335.594 761.643 327.308 761.61 319.021 761.562C313.696 761.531 308.21 761.704 302.921 761.003C296.113 760.1 290.026 756.917 285.177 752.067C281.539 748.429 278.278 743.568 277.328 738.442C276.528 734.13 276.895 729.17 276.933 724.779L276.987 722.036L615.91 721.32C624.194 720.746 632.431 719.726 640.029 716.316C641.845 715.501 643.921 714.858 645.25 713.324L644.53 711.653L647.836 710.743C668.057 704.185 683.996 690.799 693.539 671.693C702.037 654.681 701.655 632.613 695.829 614.913L696.23 614.314C697.027 612.486 695.889 608.45 695.585 606.45C695.141 603.537 695.013 600.634 694.951 597.693C694.444 573.832 694.989 549.876 694.989 526C694.989 502.213 695.344 478.42 695.313 454.637C695.267 419.215 694.884 383.806 695.039 348.381C695.122 329.324 695.196 310.271 695.089 291.213C695.044 283.313 695.973 273.754 694.432 266.057Z"/>
	<path fill="#119CE3" transform="scale(0.5 0.5)" d="M216.359 569.32L216.871 569.16C229.394 565.342 244.179 565.452 257.162 565.441C257.371 602.559 257.416 639.68 257.533 676.798C257.567 687.815 257.848 698.819 257.959 709.832C258.071 720.987 257.359 733.115 259.884 744.003C261.672 751.712 266.374 758.519 271.931 764.02C279.104 771.121 287.802 776.49 297.688 778.816C305.723 780.707 314.294 780.546 322.501 780.663C332.233 780.803 341.967 780.896 351.7 780.939C388.653 781.101 425.623 780.563 462.571 780.838C461.383 791.818 460.13 802.697 457.54 813.464C446.581 859.026 419.146 897.437 383 926.571C340.621 960.729 284.437 973.949 230.86 968.062C210.167 965.787 191.105 960.668 171.884 952.672C163.465 949.17 154.881 945.277 147.094 940.494C125.214 927.056 106.461 908.925 90.5129 888.923C81.0322 877.033 74.0793 864.207 68.2384 850.217C53.9403 815.971 49.468 779.439 53.6449 742.65C55.0792 730.017 57.257 717.457 61.002 705.291C73.437 664.897 99.34 631.939 132.177 605.948C138.744 600.75 146.072 595.862 153.453 591.914C161.313 587.71 169.536 584.28 177.432 580.188C178.126 580.425 178.758 580.718 179.509 580.625L180 580.516C185.106 579.467 190.738 576.841 195.778 575.194C202.534 572.985 209.519 571.275 216.359 569.32Z"/>
	<defs>
		<linearGradient id="gradient_1" gradientUnits="userSpaceOnUse" x1="955.75" y1="843.75" x2="592.01001" y2="700.88702">
			<stop offset="0" stop-color="#027CC8"/>
			<stop offset="1" stop-color="#0997D2"/>
		</linearGradient>
	</defs>
	<path fill="url(#gradient_1)" transform="scale(0.5 0.5)" d="M766.605 565.75C769.713 564.579 775.547 565.545 778.944 565.777C800.658 567.258 821.254 570.712 841.894 577.733C842.608 578.66 842.969 579.202 844.072 579.696L844.978 580.044L850.977 582.525C856.45 585.149 862.208 587.457 867.598 590.222C882.783 598.01 897.679 609.593 909.824 621.53C939.255 650.456 961.377 686.698 968.668 727.735C970.74 739.4 971.404 751.661 971.477 763.489C971.739 805.378 960.203 847.66 936.082 882.195C927.815 894.03 917.598 905.213 907.448 915.462C897.284 925.726 886.091 933.427 873.672 940.744C851.555 953.776 827.961 962.934 802.489 966.814C789.721 968.758 776.898 969.085 764.007 969.146C746.649 968.874 728.896 967.312 711.99 963.27C689.713 957.944 667.101 947.559 648.534 934.206C629.097 920.227 610.254 902.658 596.569 882.965C590.699 874.519 585.955 865.497 581.304 856.348C575.91 845.739 571.064 834.747 567.688 823.317C563.528 809.232 561.342 794.835 558.989 780.372C597.95 780.814 636.862 780.697 675.821 780.625C685.214 780.608 694.609 780.827 704.002 780.892C710.278 780.936 716.777 781.214 722.969 780.034C733.545 778.018 743.022 773.561 750.75 765.948C757.391 759.406 762.674 750.755 764.683 741.61C766.634 732.724 765.893 723.177 765.964 714.128C766.07 700.724 766.204 687.326 766.135 673.922C766.064 660.265 766.444 646.62 766.465 632.965C766.501 610.568 766.261 588.143 766.605 565.75Z"/>
	<defs>
		<linearGradient id="gradient_2" gradientUnits="userSpaceOnUse" x1="970.75" y1="270.75" x2="561.33398" y2="239.177">
			<stop offset="0" stop-color="#0101B7"/>
			<stop offset="1" stop-color="#0201FF"/>
		</linearGradient>
	</defs>
	<path fill="url(#gradient_2)" transform="scale(0.5 0.5)" d="M651.03 87.8376L652.026 87.8431C653.333 87.8188 653.959 87.344 655 86.6599C663.603 81.0082 674.085 75.6858 683.75 72.1158C688.24 70.4572 692.915 69.3173 697.462 67.8335C710.7 63.5133 724.752 59.4814 738.574 57.6646C748.413 56.3712 758.518 56.399 768.424 56.0511C781.476 55.5927 794.725 55.4336 807.539 58.3808C834.519 64.586 860.862 73.7922 883.863 89.584C891.838 95.0597 899.019 101.376 906.142 107.895C913.005 114.177 920.159 120.787 925.781 128.233L931.382 131.022C937.022 138.891 942.386 147.289 946.894 155.863C948.592 159.093 949.908 162.489 951.523 165.764C953.132 169.026 955.363 172.651 956.338 176.126C967.304 200.759 971.841 225.872 972.021 252.758C972.082 261.82 971.93 270.836 970.761 279.836C968.384 298.147 963.068 317.258 956.462 334.487C944.611 365.398 923.684 391.46 898.456 412.535C884.5 424.194 868.904 434.62 852.25 441.999C843.266 445.98 834.066 450.003 824.632 452.803C805.834 458.382 786.306 459.461 766.835 458.988C766.121 420.417 766.501 381.803 766.502 343.225C766.502 332.606 766.517 321.986 766.486 311.368C766.466 304.383 766.827 296.992 765.663 290.101C764.103 280.856 759.528 270.983 753.357 263.974C748.765 262.216 744.622 258.094 740.516 255.347C736.677 252.779 731.709 250.596 727.411 248.914C721.568 247.539 714.522 248.044 708.529 248.025C698.453 247.993 688.377 248.035 678.302 248.055C638.807 248.133 599.328 248.399 559.835 248.693C560.685 239.26 561.14 229.771 562.734 220.425C563.907 213.55 565.97 206.933 567.22 200.104C568.398 199.418 569.322 198.917 569.881 197.599C576.241 182.611 582.703 167.008 590.899 152.925C593.454 148.534 596.121 144.038 599.021 139.873C601.948 135.668 605.396 131.92 607.445 127.183C619.755 112.266 635.237 98.9265 651.03 87.8376Z"/>
	<path fill="#000086" transform="scale(0.5 0.5)" d="M727.411 248.914C731.004 249.212 734.343 249.285 737.643 250.824C743.72 253.658 750.085 257.917 753.357 263.974C748.765 262.216 744.622 258.094 740.516 255.347C736.677 252.779 731.709 250.596 727.411 248.914Z"/>
	<path fill="#000086" transform="scale(0.5 0.5)" d="M925.781 128.233L931.382 131.022C937.022 138.891 942.386 147.289 946.894 155.863C948.592 159.093 949.908 162.489 951.523 165.764C953.132 169.026 955.363 172.651 956.338 176.126C950.624 170.788 948.468 162.666 944.444 155.969C938.751 146.494 932.553 136.971 925.781 128.233Z"/>
	<path fill="#0201FD" transform="scale(0.5 0.5)" d="M219.068 54.8033C227.33 53.3591 235.694 51.8396 244.062 51.237C250.729 50.757 257.482 50.9387 264.163 50.9589C269.236 50.9742 274.468 50.7914 279.519 51.2494C288.54 52.0674 297.481 54.3554 306.228 56.6016C316.256 59.1771 326.181 61.757 335.856 65.5026C343.416 68.4293 350.424 72.2962 357.514 76.1822C364.183 79.8378 370.897 83.5128 377.128 87.8939C392.915 98.9942 407.539 112.099 419.176 127.543C421.086 130.077 424.104 133.571 424.618 136.71L424.839 138.427C435.014 153.123 444.023 168.211 450.554 184.918C458.308 204.75 462.162 227.51 462.71 248.725C449.829 248.974 436.972 248.537 424.093 248.437C397.895 248.234 371.7 248.03 345.502 247.992C336.662 247.979 327.822 247.97 318.983 247.967C310.906 247.965 303.069 247.828 295.126 249.555C285.876 251.567 278.508 255.711 271.937 262.515C265.378 269.308 261.146 277.253 259.202 286.494C257.917 292.604 258.114 298.929 258.161 305.138C258.217 312.511 258.29 319.883 258.253 327.256C258.114 354.502 257.488 381.802 258.134 409.041L258.3 459.011C239.867 459.537 220.625 458.552 202.605 454.347C189.733 451.343 177.818 446.376 166 440.531C146.514 430.892 128.058 418.376 112.238 403.392C105.171 396.698 99.1256 389.595 93.0848 381.987C90.204 378.358 87.0494 374.776 84.5391 370.882C77.0802 359.313 71.4598 347.287 66.25 334.596C62.4751 325.401 58.9191 316.205 56.5344 306.533C54.5006 298.285 53.4649 289.931 52.4414 281.516C51.3088 272.203 50.2837 262.858 50.0925 253.47C49.9431 246.135 50.6829 238.687 51.4799 231.398C52.9873 217.611 55.1879 205.224 59.8131 192.087C62.8204 187.65 64.8162 182.008 67.1824 177.158C71.5529 168.199 76.1339 159.246 80.8852 150.5C82.5519 147.432 85.3533 144.386 87.4256 141.5C103.452 119.184 124.882 100.744 147.749 85.7892C153.207 82.2198 158.391 78.5611 164.081 75.3318C164.599 74.9275 165.043 74.6017 165.668 74.3797C167.345 73.7846 167.996 73.0199 169.076 71.6306L169.086 71.5647C178.992 66.3898 189.496 61.5302 200.296 58.55C206.452 56.8512 212.792 55.9326 219.068 54.8033Z"/>
	<path fill="#0001B7" transform="scale(0.5 0.5)" d="M169.076 71.6306L169.086 71.5647C178.992 66.3898 189.496 61.5302 200.296 58.55C206.452 56.8512 212.792 55.9326 219.068 54.8033L222.148 55.25C221.383 55.4001 220.684 55.4948 219.905 55.5547C218.426 55.6684 219.83 55.5041 218.25 56L216.248 56.125C216.63 57.0795 217.164 57.1979 218 57.755C219.493 57.7529 220.801 58.0517 222 57.255C223.416 56.314 225.299 56.9001 226.725 57.4594C218.119 59.3356 209.405 61.0476 200.896 63.3277C188.35 66.6898 176.254 70.8784 164.081 75.3318C164.599 74.9275 165.043 74.6017 165.668 74.3797C167.345 73.7846 167.996 73.0199 169.076 71.6306Z"/>
	<defs>
		<linearGradient id="gradient_3" gradientUnits="userSpaceOnUse" x1="412.75" y1="121.25" x2="407.423" y2="41.281502">
			<stop offset="0" stop-color="#010134"/>
			<stop offset="1" stop-color="#000187"/>
		</linearGradient>
	</defs>
	<path fill="url(#gradient_3)" transform="scale(0.5 0.5)" d="M219.068 54.8033C227.33 53.3591 235.694 51.8396 244.062 51.237C250.729 50.757 257.482 50.9387 264.163 50.9589C269.236 50.9742 274.468 50.7914 279.519 51.2494C288.54 52.0674 297.481 54.3554 306.228 56.6016C316.256 59.1771 326.181 61.757 335.856 65.5026C343.416 68.4293 350.424 72.2962 357.514 76.1822C364.183 79.8378 370.897 83.5128 377.128 87.8939C392.915 98.9942 407.539 112.099 419.176 127.543C421.086 130.077 424.104 133.571 424.618 136.71L424.839 138.427C419.776 133.487 415.908 127.206 411.209 121.903C403.097 112.748 392.98 104.353 383.333 96.8442C364.448 82.1455 342.629 71.503 319.901 64.25C310.47 61.2403 300.335 58.4103 290.515 57.0438C269.764 54.1562 247.466 54.8815 226.725 57.4594C225.299 56.9001 223.416 56.314 222 57.255C220.801 58.0517 219.493 57.7529 218 57.755C217.164 57.1979 216.63 57.0795 216.248 56.125L218.25 56C219.83 55.5041 218.426 55.6684 219.905 55.5547C220.684 55.4948 221.383 55.4001 222.148 55.25L219.068 54.8033Z"/>
	<path fill="white" transform="scale(0.5 0.5)" d="M276.987 722.036C277.285 701.542 276.794 680.998 276.638 660.5C276.393 628.264 276.281 595.994 276.125 563.755C276.07 552.367 276.468 540.979 276.486 529.59C276.523 507.348 276.013 485.116 276.014 462.879C276.016 447.582 276.537 432.298 276.533 416.996C276.527 391.785 276.899 366.555 276.756 341.351C276.7 331.669 276.615 321.987 276.584 312.305C276.563 305.822 276.343 299.193 277.124 292.75C277.924 286.149 280.848 279.571 285.461 274.741C289.475 270.54 295.07 267.148 300.912 266.433C310.926 265.208 321.713 266.394 331.82 266.427C354.115 266.498 376.438 266.425 398.731 266.29C470.198 265.858 541.674 266.522 613.143 266.379C640.223 266.325 667.362 266.709 694.432 266.057C695.973 273.754 695.044 283.313 695.089 291.213C695.196 310.271 695.122 329.324 695.039 348.381C694.884 383.806 695.267 419.215 695.313 454.637C695.344 478.42 694.989 502.213 694.989 526C694.989 549.876 694.444 573.832 694.951 597.693C695.013 600.634 695.141 603.537 695.585 606.45C695.889 608.45 697.027 612.486 696.23 614.314L695.829 614.913C701.655 632.613 702.037 654.681 693.539 671.693C683.996 690.799 668.057 704.185 647.836 710.743L644.53 711.653L645.25 713.324C643.921 714.858 641.845 715.501 640.029 716.316C632.431 719.726 624.194 720.746 615.91 721.32L276.987 722.036Z"/>
	<path transform="scale(0.5 0.5)" d="M644.53 711.653C642.689 712.131 640.853 712.412 638.963 712.596C629.581 713.509 618.884 712.866 609.818 710.136C591.045 704.485 575.602 690.606 562.944 676.108C561.657 674.633 555.288 666.393 554.183 665.937C552.856 665.39 550.223 665.339 548.75 665.098C535.844 662.986 522.215 663.772 509.148 663.697C492.088 663.598 475.009 663.379 457.95 663.583C450.001 663.678 441.312 664.642 433.435 663.694L432.5 663.577C416.602 661.686 401.529 654.105 391.505 641.431C382.521 630.071 378.574 613.439 380.421 599.164C381.768 588.763 386.131 578.438 392.283 569.953C394.933 566.298 398.881 563.108 402.065 559.855C409.944 551.804 417.877 543.808 425.775 535.776C436.977 524.386 448.387 513.225 459.616 501.876C469.109 492.283 478.345 482.487 487.963 473.009C498.193 462.929 508.397 451.826 519.812 443.08L462.426 384.674C456.815 383.787 450.001 384.465 444.273 384.491C429.245 384.559 414.217 384.856 399.187 384.932C405.324 391.563 411.475 398.182 417.764 404.67C422.795 409.86 427.859 414.993 432.604 420.451C435.285 423.535 438.115 426.56 439.957 430.239C438.87 434.249 435.49 437.711 432.519 440.452C420.763 451.296 406.143 456.248 390.255 455.551C370.102 454.667 350.933 445.706 337.468 430.714C325.972 417.914 320.536 397.894 321.604 380.942C322.747 362.792 331.973 343.541 345.729 331.637C360.28 319.044 380.234 312.204 399.433 313.644C430.076 315.941 450.067 339.583 469.374 360.617C469.63 360.896 470.512 361.826 470.846 361.973C471.685 362.341 474.688 362.115 475.749 362.145C484.912 362.409 494.121 362.124 503.287 362.052C521.457 361.91 539.629 362.014 557.799 362.023C568.269 362.028 579.022 361.548 589.462 362.192C604.814 363.138 619.664 370.109 629.775 381.728C640.123 393.619 644.707 408.299 643.377 424C642.458 434.857 637.379 445.822 631.061 454.529C625.082 462.769 617.454 469.166 610.334 476.339C596.609 490.169 582.841 503.911 569.043 517.66C554.546 532.106 540.395 546.882 525.883 561.316C518.422 568.738 511.154 576.346 503.043 583.068L559.837 640.95L623.848 641.506C610.619 625.527 593.203 612.42 581.379 595.245C584.34 590.614 588.467 587.545 592.823 584.316C598.575 580.052 604.254 576.142 610.895 573.373C625.256 567.383 642.361 569.084 656.478 575.038C674.594 582.678 688.494 596.657 695.829 614.913C701.655 632.613 702.037 654.681 693.539 671.693C683.996 690.799 668.057 704.185 647.836 710.743L644.53 711.653Z"/>
	<path fill="#119CE3" transform="scale(0.5 0.5)" d="M628.819 591.201C636.712 590.6 644.26 592.601 651.32 595.987C663.242 601.705 672.62 612.259 676.912 624.746C681.248 637.357 680.157 651.739 674.27 663.693C668.349 675.715 657.286 684.164 644.691 688.282C630.295 692.987 615.551 691.023 602.32 684.201C593.24 678.594 586.293 671.677 579.96 663.142C588.618 663.385 597.273 663.245 605.932 663.126C616.214 662.985 629.578 664.187 638.576 658.55C643.204 655.65 646.8 650.965 647.954 645.582C648.625 642.449 648.165 639.7 646.777 636.827C643.904 630.877 638.181 625.53 633.683 620.759C626.4 613.033 618.427 605.141 612.458 596.325C617.826 593.227 622.632 591.786 628.819 591.201Z"/>
	<path fill="#119CE3" transform="scale(0.5 0.5)" d="M389.816 334.205L395.21 334.081C415.515 334.924 428.884 348.925 441.76 362.937C429.479 363.909 417.008 363.476 404.692 363.466C399.469 363.462 393.884 363.029 388.728 363.819C386.506 364.16 384.407 364.847 382.5 366.05C378.579 368.524 375.553 372.226 374.476 376.782L374.324 377.469C374.054 378.643 373.896 379.712 373.875 380.924C373.736 389.379 379.822 396.176 385.082 402.132C390.728 408.527 396.816 414.534 402.825 420.586L411.729 429.553C407.068 432.014 401.701 433.234 396.483 433.772C382.654 435.199 369.005 431.865 358.142 423.041C348.343 415.082 343.874 402.724 342.706 390.47C341.478 377.585 345.226 363.072 353.55 353.007C362.746 341.885 375.604 335.652 389.816 334.205Z"/>
	<path fill="#119CE3" transform="scale(0.5 0.5)" d="M490.881 383.75C492.976 383.042 495.702 383.365 497.901 383.358C503.378 383.339 508.854 383.32 514.331 383.313C532.063 383.29 549.797 383.355 567.525 383.696C575.152 383.842 583.277 383.356 590.82 384.328L591.75 384.456C597.44 385.176 603.117 386.904 607.833 390.273C614.934 395.346 620.044 403.453 621.432 412.096L621.568 413C622.97 421.907 620.816 429.978 616.118 437.589C611.138 445.657 603.692 452.171 596.92 458.71C589.955 465.435 583.017 472.189 576.202 479.066C558.161 497.275 540.088 515.446 522.021 533.632C511.676 544.046 501.485 554.662 490.899 564.83C480.969 574.367 471.372 583.928 461.877 593.887C459.364 596.522 455.533 599.338 453.801 602.5L454.223 603.75C457.077 604.794 460.726 604.627 463.76 604.712C471.277 604.922 478.802 604.657 486.319 604.539C487.767 604.517 491.48 604.042 492.688 604.663L493.224 605.055C499.245 609.341 504.446 614.79 509.66 619.998C516.509 626.84 523.295 633.733 529.966 640.75L530.308 641.774C515.238 642.563 499.905 641.889 484.801 641.926C473.359 641.953 461.917 642.011 450.474 641.984C443.169 641.967 434.499 642.623 427.413 640.782L426.5 640.538C420.08 638.91 414.637 636.077 409.97 631.338C404.066 625.346 400.367 616.721 400.548 608.25C400.736 599.451 403.188 591.458 408.357 584.315C411.977 579.312 417.451 575.032 421.769 570.579C434.707 557.238 447.68 544.146 460.896 531.074C480.175 512.004 499.213 492.682 518.562 473.684C524.354 467.997 530.526 462.74 536.3 457.029C547.147 446.3 557.508 435.139 568.484 424.53C558.098 424.065 547.699 424.034 537.308 423.68C535.503 423.618 530.637 423.95 529.263 423.209C528.454 422.773 527.515 421.364 526.915 420.672C525.271 418.777 523.582 416.943 521.84 415.137C511.638 404.566 501.309 394.097 490.881 383.75Z"/>
</svg>
